<svg id="Logo" xmlns="http://www.w3.org/2000/svg" width="243" height="62" viewBox="0 0 243 62">
  <metadata><?xpacket begin="﻿" id="W5M0MpCehiHzreSzNTczkc9d"?>
<x:xmpmeta xmlns:x="adobe:ns:meta/" x:xmptk="Adobe XMP Core 5.6-c142 79.160924, 2017/07/13-01:06:39        ">
   <rdf:RDF xmlns:rdf="http://www.w3.org/1999/02/22-rdf-syntax-ns#">
      <rdf:Description rdf:about=""/>
   </rdf:RDF>
</x:xmpmeta>
                                                                                                    
                                                                                                    
                                                                                                    
                                                                                                    
                                                                                                    
                                                                                                    
                                                                                                    
                                                                                                    
                                                                                                    
                                                                                                    
                                                                                                    
                                                                                                    
                                                                                                    
                                                                                                    
                                                                                                    
                                                                                                    
                                                                                                    
                                                                                                    
                                                                                                    
                                                                                                    
                           
<?xpacket end="w"?></metadata>
<defs>
    <style>
      .cls-1 {
        fill-rule: evenodd;
      }
    </style>
  </defs>
  <path id="mega_copiar" data-name="mega copiar" class="cls-1" d="M1581.57,127.592v37.881h15.09V139.211c0-1.827.03-3.021,0.08-3.583a2.007,2.007,0,0,1,.81-1.427,2.755,2.755,0,0,1,1.77-.586,1.844,1.844,0,0,1,2.02,1.114,32.206,32.206,0,0,1,.37,6.68v24.064h15.1V140.781q0-4.882.48-6.024a2.053,2.053,0,0,1,2.13-1.142,1.964,1.964,0,0,1,2.07,1.157,23.52,23.52,0,0,1,.44,6.009v24.692h15.1V138.554a21.948,21.948,0,0,0-.74-6.723,6.621,6.621,0,0,0-3.33-3.5,15.176,15.176,0,0,0-12.03-.355,12.991,12.991,0,0,0-4.43,3.217,12.112,12.112,0,0,0-9.82-4.289,14.377,14.377,0,0,0-5.7,1.072,11.57,11.57,0,0,0-4.32,3.217l0.27-3.6h-15.36Zm96.05,14.587q0-5.508-1.72-8.549a11.963,11.963,0,0,0-5.96-4.882,31.428,31.428,0,0,0-20.28-.314,11.321,11.321,0,0,0-5.93,4.4,14.565,14.565,0,0,0-1.81,7.835v11.048a19.66,19.66,0,0,0,.81,6.437,9.868,9.868,0,0,0,2.9,4.054,14.922,14.922,0,0,0,5.88,2.9,32.328,32.328,0,0,0,8.7,1.056,28.308,28.308,0,0,0,8.45-1.07,13.772,13.772,0,0,0,5.57-3.212,10.347,10.347,0,0,0,2.79-4.025,18.694,18.694,0,0,0,.6-5.4v-2.8h-14.75v5a8.165,8.165,0,0,1-.6,3.811,2.554,2.554,0,0,1-2.37.985,2.151,2.151,0,0,1-1.92-.742,6.849,6.849,0,0,1-.5-3.312V147.2h20.14v-5.025Zm-20.14-1.141v-2.77a11.336,11.336,0,0,1,.38-3.924c0.26-.486.93-0.729,2-0.729a1.752,1.752,0,0,1,1.74.857,10.584,10.584,0,0,1,.42,3.8v2.77h-4.54Zm46.1-13.446-1.12,2.862a12.591,12.591,0,0,0-4.29-2.66,15.4,15.4,0,0,0-5.34-.887q-5.355,0-7.97,2.37t-2.62,7.764V150.8a13.471,13.471,0,0,0,1,5.809,7.355,7.355,0,0,0,3.72,3.3,16.5,16.5,0,0,0,6.91,1.256,15.525,15.525,0,0,0,4.64-.687,16.11,16.11,0,0,0,4.22-2.032V161.3a5.932,5.932,0,0,1-.58,3.229,2.816,2.816,0,0,1-2.35.772,2.2,2.2,0,0,1-2.46-2.512h-15.1c0.1,3.654,1.66,6.1,4.66,7.35s6.98,1.87,11.94,1.87A41.627,41.627,0,0,0,1708.87,171a15.1,15.1,0,0,0,6.22-2.941,7.165,7.165,0,0,0,2.6-3.653,46.994,46.994,0,0,0,.37-7.636V127.592h-14.48Zm-1.12,21.781a11.307,11.307,0,0,1-.46,4.139,2.034,2.034,0,0,1-2.01.914,1.867,1.867,0,0,1-1.77-.757,8.118,8.118,0,0,1-.42-3.3V137.641a6.277,6.277,0,0,1,.56-3.212,2.141,2.141,0,0,1,1.9-.814,1.908,1.908,0,0,1,1.8.714,8.487,8.487,0,0,1,.4,3.312v11.732Zm35.05-11.076a11.5,11.5,0,0,1,.38-3.925,2.034,2.034,0,0,1,1.97-.757,2.2,2.2,0,0,1,1.98.9q0.6,0.9.6,3.868a6.088,6.088,0,0,1-.54,3.14q-0.54.771-8.21,3-7.155,2.055-8.97,3.6t-1.81,5.8v3.112q0,5.737,3.41,7.436a16.557,16.557,0,0,0,7.49,1.7,12.978,12.978,0,0,0,5.37-1.015,8.882,8.882,0,0,0,3.68-3.045v3.375H1758V146.461q0-9.392-.81-12.4t-4.82-5.081q-4-2.07-11.9-2.07a26.594,26.594,0,0,0-10.7,1.827q-4.125,1.827-5.49,4.211a13.788,13.788,0,0,0-1.37,6.779v2.541h14.6V138.3Zm4.93,16.957a8.072,8.072,0,0,1-.45,3.525,2.148,2.148,0,0,1-1.9.671,2.207,2.207,0,0,1-2.06-.857,8.638,8.638,0,0,1-.52-3.8,10.386,10.386,0,0,1,.59-3.939q0.6-1.371,4.34-3.4v7.794Z" transform="translate(-1515 -110)"/>
  <path id="Ω_copiar" data-name="Ω copiar" class="cls-1" d="M1531.19,133.056a30.405,30.405,0,0,1,1.57-10.864,14.871,14.871,0,0,1,4.9-6.527,12.371,12.371,0,0,1,7.71-2.53,13.4,13.4,0,0,1,9.88,4.458q4.3,4.458,4.31,15.985,0,15.183-7.38,17.713l-1.37,14.419h24.95V150.568h-1.45a6.771,6.771,0,0,1-.89,3.414,3.877,3.877,0,0,1-1.83,1.526,11.693,11.693,0,0,1-3.69.4h-13.22l0.28-2.771q10.125-2.129,14.45-7.913a20.633,20.633,0,0,0,4.33-12.652q0-9.278-7.45-15.925T1545.37,110q-13.455,0-20.91,6.647T1517,132.574a20.644,20.644,0,0,0,4.34,12.652q4.32,5.784,14.44,7.913l0.28,2.771h-13.21q-3.87,0-5.06-1.285a6.445,6.445,0,0,1-1.35-4.057h-1.45V165.71h24.94l-1.37-14.419q-7.365-2.49-7.37-18.235h0Z" transform="translate(-1515 -110)"/>
</svg>
